#!OML:ASF I:\Random Stuff\random\construction\7_22_03\Session 2\subj1.ASF
:FULLY-SPECIFIED
:DEGREES
253
root -0.171432 17.8604 -0.60631 1.1039 67.7405 -9.33582
lowerback 2.24675 0.65297 0.456505
upperback -0.287632 0.876893 -0.435284
thorax -1.54006 0.432341 -0.7327
lowerneck -21.5256 2.00013 3.48993
upperneck 45.5566 3.40971 0.493656
head 23.3532 2.45806 0.696546
rclavicle 2.21645e-014 -7.15625e-015
rhumerus -35.5728 38.4647 -102.708
rradius 97.1
rwrist -22.4275
rhand -21.9009 16.2361
rfingers 7.12502
rthumb 4.50451 -13.696
lclavicle 2.21645e-014 -7.15625e-015
lhumerus -26.7591 -27.4755 100.764
lradius 102.321
lwrist 57.479
lhand -12.096 84.5398
lfingers 7.12502
lthumb 13.9645 -114.051
rfemur -6.85223 11.2527 20.8243
rtibia 3.97569e-016
rfoot 0.443815 -14.1711
rtoes -19.3598
lfemur -14.4284 -17.9232 -10.8849
ltibia 18.9523
lfoot -13.8683 21.0336
ltoes -27.859
254
root -0.170917 17.8596 -0.604813 1.07893 67.724 -9.31028
lowerback 2.26678 0.667257 0.440835
upperback -0.301557 0.895358 -0.448418
thorax -1.5653 0.441518 -0.738414
lowerneck -21.4523 1.97915 3.51077
upperneck 45.5899 3.35751 0.532237
head 23.3524 2.45142 0.700775
rclavicle 2.8128e-014 -1.11319e-014
rhumerus -35.4726 38.0985 -102.657
rradius 98.0543
rwrist -23.4265
rhand -21.4032 15.7915
rfingers 7.12502
rthumb 4.98501 -14.1299
lclavicle 2.8128e-014 -1.11319e-014
lhumerus -26.4159 -26.9351 100.636
lradius 103.194
lwrist 57.9601
lhand -12.1165 84.1703
lfingers 7.12502
lthumb 13.9448 -113.683
rfemur -6.8011 11.2699 20.8337
rtibia -1.59028e-015
rfoot 0.482028 -14.1684
rtoes -19.6377
lfemur -14.3673 -17.8573 -10.9174
ltibia 18.9648
lfoot -13.9145 20.9405
ltoes -27.8258
255
root -0.168629 17.8585 -0.601155 1.19467 67.7028 -9.12396
lowerback 2.25336 0.66254 0.331427
upperback -0.317026 0.885748 -0.464665
thorax -1.57517 0.437562 -0.693357
lowerneck -21.3712 1.97848 3.52168
upperneck 45.6399 3.32985 0.604377
head 23.363 2.45638 0.732544
rclavicle 1.02076e-013 -1.35174e-014
rhumerus -35.4669 37.7735 -102.717
rradius 99.0617
rwrist -25.0748
rhand -21.258 15.4863
rfingers 7.12502
rthumb 5.12525 -14.4317
lclavicle 1.02076e-013 -1.35174e-014
lhumerus -26.0281 -26.0803 100.388
lradius 103.762
lwrist 57.7784
lhand -12.1137 83.5967
lfingers 7.12502
lthumb 13.9474 -113.109
rfemur -6.73101 11.2899 20.7796
rtibia -1.39149e-014
rfoot 0.48422 -14.1669
rtoes -19.7228
lfemur -14.2584 -17.8256 -11.0197
ltibia 18.9247
lfoot -13.933 20.9361
ltoes -28.0666
256
root -0.165036 17.8583 -0.59999 1.28367 67.6951 -8.96535
lowerback 2.23285 0.651483 0.276059
upperback -0.332858 0.869177 -0.482227
thorax -1.58068 0.429671 -0.679594
lowerneck -21.3405 1.9821 3.56028
upperneck 45.7053 3.31144 0.641742
head 23.4119 2.46465 0.744146
rclavicle 2.0773e-014 -1.59028e-015
rhumerus -35.4949 37.4262 -102.796
rradius 100.107
rwrist -26.8778
rhand -21.1995 14.9842
rfingers 7.12502
rthumb 5.18173 -14.9324
lclavicle 2.0773e-014 -1.59028e-015
lhumerus -25.5965 -25.0813 100.065
lradius 104.186
lwrist 58.4135
lhand -12.2761 83.1124
lfingers 7.12502
lthumb 13.791 -112.635
rfemur -6.65037 11.2946 20.7227
rtibia 7.55382e-015
rfoot 0.460714 -14.1663
rtoes -19.5122
lfemur -14.1333 -17.7904 -11.1249
ltibia 18.8595
lfoot -13.8758 20.9623
ltoes -28.0618
257
root -0.162754 17.8591 -0.602345 1.23678 67.7055 -8.97023
lowerback 2.23396 0.638462 0.329544
upperback -0.346444 0.85315 -0.490113
thorax -1.59455 0.421072 -0.717208
lowerneck -21.372 1.98682 3.64849
upperneck 45.7404 3.29198 0.612871
head 23.4633 2.47093 0.708848
rclavicle 3.72721e-014 7.95139e-016
rhumerus -35.4477 37.06 -102.841
rradius 101.136
rwrist -28.2772
rhand -21.218 14.4573
rfingers 7.12502
rthumb 5.16391 -15.4598
lclavicle 3.72721e-014 7.95139e-016
lhumerus -25.1382 -24.1486 99.688
lradius 104.485
lwrist 59.6108
lhand -12.5029 82.717
lfingers 7.12502
lthumb 13.5723 -112.255
rfemur -6.59022 11.282 20.7202
rtibia -1.63003e-014
rfoot 0.423319 -14.1644
rtoes -19.247
lfemur -14.0421 -17.7661 -11.1563
ltibia 18.7897
lfoot -13.8353 20.936
ltoes -27.898
258
root -0.161871 17.8587 -0.602718 1.18469 67.7053 -9.00452
lowerback 2.21262 0.630949 0.380006
upperback -0.358047 0.844362 -0.497748
thorax -1.59377 0.416162 -0.752818
lowerneck -21.3932 1.97501 3.72476
upperneck 45.75 3.24142 0.593196
head 23.4843 2.46449 0.67122
rclavicle -3.93594e-014 -1.43125e-014
rhumerus -35.3489 36.719 -102.899
rradius 102.064
rwrist -28.8074
rhand -21.5636 14.3992
rfingers 7.12502
rthumb 4.83012 -15.5257
lclavicle -3.93594e-014 -1.43125e-014
lhumerus -24.7635 -23.4223 99.3154
lradius 104.593
lwrist 60.4585
lhand -12.617 82.3325
lfingers 7.12502
lthumb 13.4624 -111.877
rfemur -6.55896 11.2827 20.7395
rtibia 1.98785e-015
rfoot 0.415141 -14.178
rtoes -19.2878
lfemur -13.971 -17.7841 -11.1497
ltibia 18.7011
lfoot -13.8166 20.9333
ltoes -27.879
259
root -0.159846 17.86 -0.600354 1.13578 67.6876 -9.02792
lowerback 2.1526 0.623692 0.397565
upperback -0.362229 0.835 -0.501513
thorax -1.56423 0.411407 -0.765447
lowerneck -21.3604 1.92137 3.75718
upperneck 45.72 3.12649 0.596064
head 23.4404 2.4295 0.634476
rclavicle 4.17448e-015 -5.56597e-015
rhumerus -35.1611 36.4367 -102.929
rradius 102.801
rwrist -28.339
rhand -22.1597 14.7535
rfingers 7.12502
rthumb 4.25453 -15.1837
lclavicle 4.17448e-015 -5.56597e-015
lhumerus -24.5219 -22.8797 98.9562
lradius 104.614
lwrist 60.873
lhand -12.6084 81.9015
lfingers 7.12502
lthumb 13.4707 -111.446
rfemur -6.51861 11.3001 20.7522
rtibia -5.56597e-015
rfoot 0.316664 -14.1984
rtoes -18.2469
lfemur -13.8868 -17.7488 -11.1517
ltibia 18.6265
lfoot -13.8041 20.9094
ltoes -27.8256
260
root -0.156155 17.8631 -0.598784 1.14072 67.6677 -8.97837
lowerback 2.09517 0.619504 0.393624
upperback -0.366628 0.829065 -0.511987
thorax -1.53652 0.408532 -0.773066
lowerneck -21.2827 1.85533 3.78977
upperneck 45.6396 2.99557 0.578789
head 23.3309 2.38533 0.57885
rclavicle -2.56432e-014 -1.43125e-014
rhumerus -34.8591 36.1608 -102.907
rradius 103.358
rwrist -27.2323
rhand -22.6188 15.2575
rfingers 7.12502
rthumb 3.81123 -14.6882
lclavicle -2.56432e-014 -1.43125e-014
lhumerus -24.3327 -22.5689 98.5978
lradius 104.575
lwrist 61.1966
lhand -12.5313 81.3603
lfingers 7.12502
lthumb 13.5449 -110.9
rfemur -6.46295 11.3155 20.7154
rtibia 6.75868e-015
rfoot 0.0906871 -14.2003
rtoes -16.0773
lfemur -13.8065 -17.6967 -11.2019
ltibia 18.6111
lfoot -13.8281 20.8503
ltoes -27.8152
261
root -0.15458 17.8613 -0.597836 1.21969 67.657 -8.87018
lowerback 2.04991 0.61411 0.354143
upperback -0.3871 0.820661 -0.518175
thorax -1.5327 0.404632 -0.756589
lowerneck -21.2621 1.8129 3.85757
upperneck 45.6291 2.9223 0.509558
head 23.3159 2.36275 0.507382
rclavicle 3.22031e-014 -2.38542e-015
rhumerus -34.5932 35.9437 -102.884
rradius 103.847
rwrist -26.1737
rhand -23.0212 16.3533
rfingers 7.12502
rthumb 3.42262 -13.5989
lclavicle 3.22031e-014 -2.38542e-015
lhumerus -24.1198 -22.4565 98.2375
lradius 104.494
lwrist 61.7508
lhand -12.4395 80.6782
lfingers 7.12502
lthumb 13.6334 -110.212
rfemur -6.43501 11.325 20.6771
rtibia -1.19271e-015
rfoot 0.0787081 -14.1904
rtoes -16.308
lfemur -13.7813 -17.6562 -11.2643
ltibia 18.6446
lfoot -13.8503 20.7771
ltoes -27.9573
262
root -0.154396 17.8555 -0.5967 1.16628 67.637 -8.90541
lowerback 2.0077 0.602267 0.329154
upperback -0.403464 0.804531 -0.489224
thorax -1.52679 0.396889 -0.712
lowerneck -21.2897 1.77877 3.90513
upperneck 45.6385 2.86839 0.44611
head 23.3386 2.34361 0.449881
rclavicle -2.5345e-014 -3.97569e-015
rhumerus -34.5006 35.926 -102.916
rradius 104.363
rwrist -25.2175
rhand -23.7475 18.4379
rfingers 7.12502
rthumb 2.72126 -11.5245
lclavicle -2.5345e-014 -3.97569e-015
lhumerus -23.9252 -22.4372 97.9161
lradius 104.58
lwrist 62.9185
lhand -12.3848 80.079
lfingers 7.12502
lthumb 13.6861 -109.609
rfemur -6.40604 11.3498 20.7252
rtibia -1.59028e-015
rfoot 0.252968 -14.1969
rtoes -18.3742
lfemur -13.7867 -17.6449 -11.2504
ltibia 18.7203
lfoot -13.9303 20.7621
ltoes -28.1041
263
root -0.151103 17.8524 -0.596629 0.909504 67.5952 -9.11501
lowerback 1.98542 0.600102 0.383219
upperback -0.402516 0.803557 -0.445161
thorax -1.51323 0.396121 -0.69685
lowerneck -21.3109 1.74939 3.88881
upperneck 45.6209 2.79113 0.498691
head 23.3258 2.31871 0.462128
rclavicle -2.75317e-014 7.15625e-015
rhumerus -34.5558 36.111 -103.003
rradius 104.896
rwrist -23.4782
rhand -24.8802 21.0164
rfingers 7.12502
rthumb 1.62729 -8.95715
lclavicle -2.75317e-014 7.15625e-015
lhumerus -23.726 -22.2943 97.6326
lradius 104.638
lwrist 63.653
lhand -11.7307 79.6953
lfingers 7.12502
lthumb 14.3165 -109.182
rfemur -6.32444 11.3945 20.8314
rtibia -2.38542e-015
rfoot 0.306223 -14.2119
rtoes -19.1087
lfemur -13.7504 -17.7538 -11.1778
ltibia 18.8349
lfoot -14.0658 20.9172
ltoes -28.0471
264
root -0.147079 17.851 -0.59704 0.671191 67.5689 -9.29279
lowerback 1.98428 0.612694 0.428469
upperback -0.403975 0.82216 -0.394254
thorax -1.51392 0.405191 -0.670662
lowerneck -21.3483 1.71779 3.79983
upperneck 45.6321 2.70582 0.642586
head 23.3406 2.29079 0.539327
rclavicle -1.54058e-014 7.15625e-015
rhumerus -34.6335 36.3466 -103.051
rradius 105.28
rwrist -20.0905
rhand -26.4413 23.2374
rfingers 7.12502
rthumb 0.11956 -6.74228
lclavicle -1.54058e-014 7.15625e-015
lhumerus -23.5913 -22.3395 97.5146
lradius 104.708
lwrist 64.5682
lhand -12.0208 79.153
lfingers 7.12502
lthumb 14.037 -108.659
rfemur -6.2329 11.4212 20.9163
rtibia 7.95139e-016
rfoot 0.303958 -14.2146
rtoes -19.0331
lfemur -13.691 -17.9564 -11.1255
ltibia 18.9338
lfoot -14.143 21.1487
ltoes -27.9568
